<svg width="32" height="32" viewBox="0 0 32 32" fill="none" xmlns="http://www.w3.org/2000/svg">
<g clip-path="url(#clip0_143_2286)">
<path d="M16 2.6671C19.5724 2.67885 22.9916 4.11912 25.4957 6.66698H21.3331C20.5968 6.66698 19.9999 7.2639 19.9999 8.00025C19.9999 8.7366 20.5968 9.33352 21.3331 9.33352H26.857C28.224 9.33277 29.3321 8.22468 29.3329 6.8576V1.33377C29.3329 0.597418 28.736 0.000499183 27.9996 0.000499183C27.2633 0.000499183 26.6663 0.597418 26.6663 1.33377V4.10437C20.1107 -1.79963 10.0102 -1.2714 4.10623 5.28421C1.79574 7.84975 0.378598 11.0948 0.0671699 14.5334C-0.00132799 15.2717 0.541718 15.9258 1.28007 15.9942C1.32007 15.9979 1.36025 15.9999 1.4005 16C2.07629 16.0086 2.64759 15.5015 2.71915 14.8293C3.33426 7.95056 9.09376 2.67617 16 2.6671Z" fill="url(#paint0_linear_143_2286)"/>
<path d="M30.6006 16.0001C29.9248 15.9915 29.3535 16.4987 29.2819 17.1708C28.6457 24.4964 22.1913 29.9192 14.8656 29.2829C11.696 29.0076 8.72974 27.6064 6.504 25.3331H10.6666C11.4029 25.3331 11.9998 24.7362 11.9998 23.9999C11.9998 23.2635 11.4029 22.6666 10.6666 22.6666H5.14273C3.77602 22.6658 2.66756 23.7732 2.66681 25.1398C2.66681 25.1407 2.66681 25.1416 2.66681 25.1425V30.6663C2.66681 31.4027 3.26373 31.9996 4.00008 31.9996C4.73643 31.9996 5.33335 31.4027 5.33335 30.6663V27.8957C11.889 33.7997 21.9894 33.2715 27.8934 26.7159C30.2039 24.1504 31.6211 20.9053 31.9325 17.4667C32.001 16.7283 31.458 16.0743 30.7196 16.0058C30.6801 16.0022 30.6403 16.0002 30.6006 16.0001Z" fill="url(#paint1_linear_143_2286)"/>
</g>
<defs>
<linearGradient id="paint0_linear_143_2286" x1="0.0613403" y1="16.0001" x2="13.5291" y2="-8.63852" gradientUnits="userSpaceOnUse">
<stop stop-color="#9945FF"/>
<stop offset="1" stop-color="#14F195"/>
</linearGradient>
<linearGradient id="paint1_linear_143_2286" x1="2.66681" y1="32.0001" x2="16.1345" y2="7.36148" gradientUnits="userSpaceOnUse">
<stop stop-color="#9945FF"/>
<stop offset="1" stop-color="#14F195"/>
</linearGradient>
<clipPath id="clip0_143_2286">
<rect width="32" height="32" fill="white"/>
</clipPath>
</defs>
</svg>
