<?xml version="1.0" standalone="no"?>
<!DOCTYPE svg PUBLIC "-//W3C//DTD SVG 20010904//EN"
 "http://www.w3.org/TR/2001/REC-SVG-20010904/DTD/svg10.dtd">
<svg version="1.0" xmlns="http://www.w3.org/2000/svg"
 width="1024.000000pt" height="1024.000000pt" viewBox="0 0 1024.000000 1024.000000"
 preserveAspectRatio="xMidYMid meet">
<metadata>
Created by potrace 1.14, written by Peter Selinger 2001-2017
</metadata>
<g transform="translate(0.000000,1024.000000) scale(0.100000,-0.100000)"
fill="#000000" stroke="none">
<path d="M4918 9255 c-2 -1 -37 -6 -78 -9 -690 -66 -1323 -367 -1820 -866
-308 -309 -536 -670 -686 -1085 -60 -167 -122 -408 -139 -544 -4 -30 -9 -63
-11 -75 -26 -134 -26 -748 1 -896 2 -14 7 -52 10 -85 14 -140 54 -347 97 -500
10 -38 21 -77 23 -85 10 -40 67 -203 95 -270 17 -41 38 -93 47 -115 32 -77
168 -340 191 -367 6 -7 11 -16 11 -20 2 -12 50 -90 120 -196 35 -53 88 -149
118 -212 30 -63 58 -123 64 -133 5 -10 68 -145 138 -300 167 -366 176 -385
227 -495 24 -52 44 -95 44 -97 0 -1 23 -52 51 -111 28 -60 61 -132 74 -159 13
-28 42 -91 66 -140 23 -50 56 -122 75 -162 91 -195 276 -557 312 -609 108
-159 258 -322 391 -424 18 -14 42 -33 54 -44 59 -49 152 -110 233 -150 164
-81 307 -114 504 -114 270 0 490 80 725 263 193 151 330 294 440 460 76 115
284 534 532 1075 46 102 95 208 108 235 23 48 58 125 95 210 10 22 33 74 52
115 65 137 100 214 150 323 27 60 53 116 58 125 5 9 36 73 70 142 33 69 100
186 148 261 107 167 112 176 211 374 87 175 123 261 183 434 37 109 92 310
104 375 2 17 11 67 19 111 22 121 23 131 31 203 3 37 8 76 10 87 26 138 26
691 -1 895 -11 85 -18 131 -25 160 -5 19 -12 51 -15 70 -20 116 -101 382 -160
520 -43 103 -115 249 -162 328 -24 41 -43 76 -43 78 0 10 -138 206 -203 289
-404 514 -971 884 -1594 1041 -137 34 -156 39 -228 49 -22 4 -47 8 -55 10 -21
6 -90 14 -195 24 -78 7 -460 12 -467 6z"/>
</g>
</svg>
